<?xml version="1.0" encoding="UTF-8"?>
<svg viewBox="0 0 658.02081 624.65527" xmlns="http://www.w3.org/2000/svg">
 <g transform="translate(178.55 -133.46)">
  <path d="m-170.76 749.14c0-3.6808 13.331-40.857 18.666-52.052 8.4526-17.739 22.918-42.543 28.106-48.196 2.2135-2.4114 6.6721-5.2447 15.986-10.158 1.6115-0.85015 5.2755-1.4107 9.0322-1.3819l6.3207 0.0485-6.0101-8.9383c-8.3918-12.48-13.822-24.35-14.021-30.648-0.10701-3.3821-0.84885-5.9677-2.2948-7.9983-1.1752-1.6504-2.784-4.5498-3.5751-6.4432-2.5602-6.1276-1.2838-18.449 1.4758-14.245 0.52878 0.8055 1.0231 2.0137 1.0984 2.685s0.24683 1.6598 0.38108 2.1968 0.29901 1.6713 0.36613 2.5207 3.0411 4.4064 6.6088 7.9046 6.159 5.5492 5.7584 4.5579c-1.308-3.2366-1.7153-13.456-0.64582-16.204 1.271-3.2657 3.9526-3.4908 8.4526-0.7097 2.8157 1.7402 3.3674 1.804 4.635 0.53639 2.0936-2.0936 5.7594-2.7664 8.7915-1.6136 2.4122 0.91711 3.8023 3.9838 1.8058 3.9838-1.152 0-15.105 9.255-16.415 10.888-0.58077 0.72395-1.3635 2.3192-1.7395 3.5449l-0.68356 2.2286 3.2491-1.9809c3.9868-2.4307 9.0722-2.5287 20.824-0.40145 4.833 0.87488 8.9149 1.6991 9.071 1.8316 0.45312 0.38477-3.8485 7.6051-5.9146 9.9277-2.7136 3.0505-10.456 6.1066-17.276 6.8195-6.2103 0.6491-6.8539 1.1929-4.3612 3.6855 3.0129 3.013 10.922 1.2514 17.744-3.952 5.3712-4.0968 8.2844-1.4841 3.5851 3.2152-1.6028 1.6028-2.3421 3.2099-2.0284 4.4096 0.59994 2.2942-3.2951 4.9287-10.836 7.329-5.6085 1.7853-5.6496 1.9352-2.4364 8.8822 2.9653 6.411 12.162 7.9666 24.933 4.2174 10.495-3.081 16.741-7.9871 18.785-14.756 0.85212-2.8214 5.0964-11.701 11.042-23.102 3.9444-7.5636 7.1381-19.067 5.6944-20.511-0.36805-0.36806-2.0505 0.61686-3.7387 2.1887-2.4276 2.2602-2.9151 2.4496-2.3309 0.90518 0.40622-1.074 0.9438-4.5889 1.1946-7.8109 0.36726-4.7179 0.06405-6.5233-1.5578-9.2754-1.1076-1.8795-3.7275-6.7125-5.8219-10.74-2.7442-5.2769-5.2378-8.482-8.9252-11.472-2.8144-2.2822-5.7604-4.1495-6.5466-4.1495s-2.7165-1.3777-4.2895-3.0616c-2.8291-3.0286-2.9253-3.0522-8.9209-2.1968-5.3611 0.7649-6.288 1.2303-8.0276 4.0309-2.4452 3.9364-5.257 4.7773-9.1842 2.7464-1.6688-0.863-3.0342-1.7524-3.0342-1.9764s0.94295-2.0055 2.0954-3.9588c2.2815-3.8669 6.3356-6.0941 8.0224-4.4073 1.1414 1.1414 5.691 1.3169 10.291 0.39703l3.078-0.61559-4.0637-3.4784c-2.8436-2.434-5.1728-5.8903-7.7575-11.512-4.1533-9.0326-6.4607-11.037-10.021-8.7037-3.5315 2.314-11.985 13.294-13.255 17.216-0.62667 1.9356-2.6802 5.3194-4.5635 7.5196l-3.4241 4.0003 4.1852 1.0817c2.3018 0.59495 4.9942 1.3176 5.9829 1.6059 2.3402 0.68232 4.5486 6.0611 4.5486 11.079 0 3.7215-0.12788 3.9027-2.0339 2.8826-3.2464-1.7374-5.7762 1.2324-5.7798 6.7852l-3e-3 4.4864-5.7075-2e-3c-3.427-9.7e-4 -6.359-0.54262-7.3381-1.3552-1.4006-1.1624-1.88-1.1277-3.3978 0.24599-2.4766 2.2413-3.3856 2.0186-5.3526-1.3113-1.3512-2.2874-1.4878-3.3432-0.63786-4.9313 0.70969-1.3261 0.89455-5.9146 0.53775-13.348-0.55423-11.546 0.38479-17.761 3.0133-19.942 0.71439-0.5929 2.168-3.9927 3.2304-7.5552 2.9165-9.7804 12.689-24.268 19.337-28.668 2.027-1.3414 6.5318-3.418 10.011-4.6146s7.6374-2.8808 9.241-3.7425c3.0443-1.6359 11.904-2.1744 16.132-0.98044 1.347 0.38041 2.9234 0.38041 3.5032 0 1.1969-0.78525 0.32149-10.757-2.2036-25.101-0.9521-5.4085-1.6953-16.665-1.933-29.275-0.40733-21.611-1.1824-26.757-6.8084-45.202-1.3731-4.5016-2.2247-8.4566-1.8925-8.7888 1.0752-1.0752 7.3379-0.63957 8.5739 0.59637 0.94963 0.94963 0.62983 1.6554-1.5308 3.3782l-2.7312 2.1778 1.9665 9.7538c2.8681 14.226 6.7313 47.915 6.2331 54.355-0.51974 6.718 2.1017 17.835 6.5503 27.778l3.1153 6.9631 8.4641-0.0858c7.5942-0.0769 9.0001 0.20671 13.679 2.7603 2.8685 1.5654 6.0538 3.912 7.0786 5.2148 2.2357 2.8423 2.2348 2.8525 0.43218-4.9202-0.78705-3.3937-1.4994-7.7048-1.5829-9.5801s-2.2451-12.197-4.8034-22.937-6.7236-28.247-9.2562-38.905c-3.299-13.883-5.1372-19.833-6.4824-20.985-1.5295-1.3096-1.7621-2.3784-1.2545-5.7637 0.6786-4.5252 0.08455-5.0554-2.7699-2.4721-1.7886 1.6187-2.1058 1.4314-8.1909-4.8356-5.462-5.6253-6.188-6.7852-5.2934-8.4568 0.82732-1.5459 1.7089-1.8282 4.3631-1.3975 2.3487 0.38115 4.6439-0.11824 7.8095-1.6992 4.661-2.3278 5.6641-4.5791 3.0186-6.7747-2.1827-1.8114-1.8181-2.4929 1.9527-3.6502 2.8279-0.86792 3.4173-0.80204 3.4173 0.38199 0 2.035 1.9035 0.59567 2.9894-2.2605 0.57643-1.5162 0.5681-3.0605-0.02246-4.1641-0.72344-1.3518-0.38758-2.2719 1.4644-4.0117 4.3652-4.1008 2.6124-10.989-4.1579-16.34-3.6019-2.8468-3.867-2.8995-11.013-2.1894-6.2948 0.62544-7.579 0.48587-9.1488-0.99429-1.7777-1.6762-1.7599-1.7652 0.66979-3.3572 3.2918-2.1568 15.203-3.8104 18.478-2.5652 4.1338 1.5717 9.5118 6.963 12.161 12.191 2.4076 4.7511 2.4701 5.2992 1.5689 13.757-1.0529 9.8819-4.287 16.602-8.4987 17.659-1.7702 0.44431-2.4931 1.4632-2.957 4.168-0.33769 1.969-0.85436 4.898-1.1482 6.509-0.92991 5.099 10.211 61.203 14.35 72.266 2.1863 5.8433 5.7685 23.718 5.7685 28.783 0 5.2852 5.7636 21.534 8.9321 25.182 1.5333 1.7651 3.9332 5.4695 5.3331 8.232 2.2876 4.5144 2.6518 4.832 3.5983 3.1371 0.57915-1.0372 3.317-4.6321 6.0842-7.9888s5.5-7.7503 6.073-9.7636 1.7802-6.2967 2.6825-9.5186c2.2713-8.1099 5.6574-12.976 10.572-15.194 2.2432-1.012 6.2754-4.0784 8.9604-6.8142 6.0069-6.1205 16.394-11.437 24.275-12.424l5.7242-0.71722 2.1466-5.9331c2.7902-7.712 5.713-12.397 11.754-18.841 8.0244-8.5597 22.187-17.048 34.566-20.716l4.2618-1.2631-0.56868-4.9377c-0.31282-2.7156-1.4601-15.482-2.5496-28.37-2.8723-33.978-3.7229-39.768-6.8593-46.688-3.9422-8.6986-6.8426-18.024-6.862-22.062-9e-3 -1.925-0.88039-6.7953-1.936-10.823s-1.9327-8.8605-1.949-10.74-1.3361-7.1518-2.9328-11.716-2.9088-9.5365-2.916-11.049c-0.01142-2.4077 0.31079-2.7114 2.5898-2.4409 2.0972 0.24892 2.8103 1.0524 3.6707 4.1361 1.1568 4.1462 3.4901 5.9154 3.4901 2.6465 0-1.0935 0.52693-3.1446 1.171-4.5581 0.99495-2.1837 1.609-2.4823 4.0855-1.9871 4.9129 0.98259 6.7422 3.3656 6.1121 7.9625-0.57906 4.2247-0.76441 4.0233 7.375 8.0136 1.0672 0.5232-0.13952-13.206-1.8426-20.964-1.7807-8.1111-1.3548-10.075 2.185-10.075 2.3036 0 2.4894 0.27211 1.9286 2.8253-0.93739 4.2678 6.2163 12.75 12.439 14.749 3.605 1.1582 4.3716 1.7662 3.6645 2.9068-1.2274 1.9797 1.3254 4.6302 5.2105 5.4098 6.8283 1.3702 6.9657 1.5466 2.695 3.4586-6.2449 2.7959-7.4734 8.0473-2.5046 10.706 6.03 3.2272 13.254 0.0308 14.11-6.2428 0.37161-2.7255 1.246-4.0395 3.6614-5.5018 1.7452-1.0566 3.1732-1.5707 3.1732-1.1423s-1.2544 4.49-2.7877 9.0259c-4.1916 12.4-8.068 29.634-8.1863 36.394-0.12263 7.0139 2.4031 13.378 9.5191 23.984 8.1057 12.081 21.193 23.457 30.533 26.539 1.9541 0.64492 6.6458 3.8673 10.426 7.1609 10.843 9.4478 23.405 16.181 30.188 16.181 3.0847 0 4.3107 1.6325 11.365 15.134 13.674 26.168 22.109 40.341 25.869 43.461 0.95312 0.79101 0.56267-0.25575-0.89845-2.4089-3.043-4.4842-3.0292-4.423-4.4596-19.795-0.93232-10.019-1.6322-13.08-4.3526-19.039-1.7829-3.9052-3.794-9.4661-4.4691-12.358-1.4217-6.0896-0.75531-16.306 1.3269-20.345 1.1514-2.233 1.2122-4.2123 0.34427-11.197-0.78822-6.3422-0.76693-9.116 0.084-10.984 1.5959-3.5026 5.1108-3.2895 7.897 0.47892 2.9184 3.9474 5.6945 4.8972 10.536 3.6049 2.1605-0.57667 4.6574-0.76869 5.5486-0.42671 1.3719 0.52644 1.0217 1.4121-2.2833 5.7759-6.2171 8.2084-9.6099 15.412-10.765 22.856-1.092 7.0379-0.94405 7.8404 2.6763 14.518 1.1861 2.1876 1.508 4.9062 1.2716 10.74-0.79789 19.692 0.12194 26.498 4.2503 31.443 1.5202 1.8211 2.439 4.4384 2.761 7.8652 0.27699 2.9468 1.216 5.9461 2.2032 7.0369 1.8444 2.0379 14.822 7.5322 15.705 6.649 0.29184-0.29181 0.0205-3.4578-0.60221-7.0355-1.666-9.5665-0.82454-40.159 1.2103-44.006 0.85207-1.611 1.8635-5.3456 2.2475-8.2991s1.534-8.4367 2.5554-12.185 1.8571-8.449 1.8571-10.446c0-6.0271-3.7331-23.437-7.0018-32.654l-3.0734-8.6663-0.22027-33.684c-0.20288-31.035-1.2002-71.139-1.9212-77.25-0.16608-1.4074-0.87511-3.4766-1.5756-4.5984-1.0476-1.6775-1.0472-2.6662 0-5.5692 1.495-4.1344 1.0646-4.9659-1.6824-3.2503-1.6874 1.0537-2.2995 0.96754-3.9893-0.56176-3.4915-3.1597-8.0393-11.092-7.7062-13.441 0.29457-2.0777 0.71392-2.2169 5.7664-1.9144 5.8993 0.35324 13.59-1.2615 13.59-2.8533 0-0.54297-0.64704-2.2385-1.4379-3.7678l-1.4379-2.7806 3.8399-0.36621c3.2081-0.30594 3.8866-0.0539 4.1229 1.5321 0.15563 1.0441 0.80471 2.0701 1.4424 2.2799 1.6609 0.54664 5.0256-3.1248 5.7791-6.306 0.35305-1.4904 1.902-3.8933 3.4421-5.3398 2.2634-2.1257 2.7918-3.436 2.7563-6.8345-0.0537-5.1563-1.405-8.2502-5.7123-13.082-2.8774-3.2278-4.1028-3.831-9.2754-4.5662-3.2783-0.46595-6.8391-0.85047-7.9131-0.85451s-3.5802-0.47704-5.5694-1.0511c-2.9222-0.84337-4.0658-0.74948-5.956 0.48899-1.5142 0.9922-3.6822 1.3772-6.1469 1.0917-3.979-0.46098-6.0244 0.56318-7.9983 4.005-1.0972 1.9133-1.1205 1.9097-1.1496-0.17761-0.0478-3.4382 5.1473-6.5272 9.7419-5.7925 2.2583 0.36113 4.0363 0.18905 4.4173-0.42754 0.66539-1.0766 11.781-0.61785 21.887 0.90321 4.6119 0.69412 5.8273 1.3738 9.1193 5.1004 6.3454 7.1829 7.5201 9.6263 7.5241 15.65 0 6.9449-5.9107 20.161-14.127 31.563-3.0774 4.2705-6.0622 8.8838-6.6329 10.252-0.95448 2.2877-1.1632 38.632-0.46289 80.596 0.12556 7.518 0.0781 15.646-0.10466 18.063s-4.9e-4 9.4395 0.40577 15.607l0.73862 11.213 5.6343 10.701 5.6342 10.701 1.2437-2.8748c0.68404-1.5811 2.4098-4.6322 3.8352-6.7802s4.0025-6.7613 5.727-10.252c10.696-21.649 30.765-35.734 53.83-37.78 15.792-1.4003 19.821-0.78825 28.737 4.3658 1.074 0.62078 5.0282 2.3089 8.7872 3.7513 9.0658 3.4788 17.321 9.1787 21.229 14.658 1.7492 2.4526 4.7722 6.2828 6.7176 8.5117 6.9002 7.9054 10.782 18.484 12.055 32.855 0.36262 4.0916 2.0948 11.631 3.9256 17.086 2.0796 6.1966 3.6827 13.509 4.3883 20.015 0.6115 5.6385 1.5461 13.108 2.0767 16.598 1.0227 6.7263 3.0563 20.403 4.7181 31.732 0.55145 3.759 1.2036 14.304 1.4492 23.433s0.88732 20.113 1.4258 24.409 1.0029 13.852 1.0318 21.236l0.0527 13.425h-10.096c-6.9283 0-12.512-0.61788-17.796-1.9695-8.7871-2.2474-32.729-13.113-39.4-17.881-7.074-5.0561-7.2165-5.0784-5.0267-0.78611 2.621 5.1377 4.9134 14.925 4.9476 21.125 0.0147 2.685 1.1487 8.395 2.5198 12.689s2.7452 11.382 3.0536 15.752c0.52675 7.4631 0.37785 8.3214-2.4567 14.161-1.6596 3.419-3.5013 9.2706-4.0926 13.004-1.4719 9.2917-7.9299 22.294-12.376 24.917-9.191 5.4228-5.3982 16.915 9.4596 28.664 7.6075 6.0156 8.1677 6.2769 14.447 6.7411 9.2724 0.68535 34.816 9.7779 50.957 18.139l5.37 2.7816 0.25444 41.481 0.25444 41.481-2.2827 2.1446c-2.2778 2.1399-2.3615 2.144-39.041 1.8885l-36.758-0.25599 3.1791-3.4173c8.0187-8.6194 16.064-18.645 20.732-25.838 6.2369-9.608 11.445-19.823 10.712-21.009-1.7942-2.903-33.461-18.569-37.535-18.569-5.4958 0-16.508-12.929-24.737-29.042-4.6077-9.0229-6.573-11.738-6.573-9.0821 0 2.5464-8.372 22.107-12.769 29.834-14.159 24.882-29.244 43.4-39.662 48.688-3.9846 2.0226-9.9587 2.034-12.828 0.0244-2.0556-1.4398-2.3756-1.4298-4.0978 0.12877-1.409 1.2751-2.8087 1.5401-5.6958 1.0784-2.9741-0.47557-3.9595-0.26873-4.4185 0.92744-1.2631 3.2916-0.43243 5.5392 3.6826 9.9648 2.3504 2.5277 5.652 7.3419 7.3368 10.698l3.0633 6.1022h-48.832c-26.858-5e-5 -48.832-0.26363-48.832-0.58577 0-2.1801 35.01-74.248 39.605-81.528 2.537-4.0188 2.2322-6.9494-1.0018-9.6333-3.2443-2.6926-4.5683-6.6255-3.5491-10.543 0.90694-3.4859 1.3683-8.9039 1.1655-13.688-0.0703-1.668-1.1756-2.6949-4.3751-4.0663-3.9852-1.7083-7.6552-5.4571-10.221-10.441-0.59284-1.1514-1.3728-7.6088-1.7331-14.35-0.56375-10.546-0.42735-12.604 0.97792-14.749 1.0808-1.6497 2.5334-2.4997 4.2956-2.5138 2.7194-0.0219 9.2368-2.76 12.022-5.0509 4.1625-3.4233 4.7419-8.5282 2.3051-20.313-1.384-6.6928-5.2284-14.645-7.0799-14.645-0.41642 0-2.4182-3.0755-4.4486-6.8345l-3.6914-6.8345h2.8782c3.414 0 4.6039-1.2582 5.5402-5.8582 0.38254-1.8795 1.5317-4.8703 2.5537-6.6462s1.8581-4.086 1.8581-5.1335c0-2.6817-8.8687-22.092-15.138-33.133-2.8971-5.1015-7.3027-11.692-9.7904-14.645-4.9079-5.827-16.351-28.367-24.784-48.818-2.768-6.7125-5.9008-14.094-6.9618-16.403-2.4403-5.311-15.928-56.706-18.628-70.981-1.117-5.907-2.7686-12.278-3.6698-14.157-1.5632-3.2595-1.8522-3.4062-6.2638-3.1787-6.7489 0.34808-11.13 2.4964-12.973 6.3619-1.4748 3.0926-1.4421 3.729 0.5414 10.55l2.6682 9.177c0.30658 1.0551-1.6465-0.70235-4.3403-3.9054-9.8642-11.73-14.231-14.624-17.168-11.378-2.128 2.3515-2.2057 5.2571-0.3311 12.389 2.2711 8.6404 3.58 22.946 3.5921 39.26 0.0153 20.576 5.0104 55.092 10.709 73.998 2.266 7.518 4.6812 16.34 5.367 19.605 0.90685 4.317 2.478 7.608 5.7611 12.068 2.4828 3.3726 4.5714 6.4133 4.6414 6.7569s0.20308 2.602 0.29564 5.0185 0.92403 5.9569 1.8478 7.8676c2.3814 4.926 12.033 16.147 15.8 18.37 2.6843 1.5838 3.1 2.3067 2.6804 4.6609-0.27309 1.5325-1.357 3.7335-2.4085 4.891-2.2162 2.4397-2.124 2.689 4.9232 13.3 4.3821 6.5983 4.3964 6.648 4.851 16.871 0.25542 5.7428-0.0605 13.457-0.71879 17.536l-1.1748 7.2824 4.4218 13.035c7.4859 22.068 17.02 40.406 24.93 47.949 4.0622 3.8741 3.8844 6.1407-0.62926 8.0267-2.7194 1.1362-5.2871 1.3566-10.184 0.87409l-6.548-0.64521-0.6816 4.5452c-0.93477 6.2337-0.0273 16.027 1.815 19.59 1.448 2.8001 5.1644 4.6657 10.936 5.4896 1.1881 0.1696 2.0786 1.163 2.274 2.537 0.30511 2.1435 0.10477 2.2258-3.9427 1.6188-3.346-0.50176-4.7382-0.25436-6.4658 1.149l-2.2017 1.7885 2.4831 23.16c1.3657 12.738 2.4832 25.809 2.4832 29.047 0 5.6287-0.10721 5.8871-2.4409 5.8871-2.3931 0-2.4411-0.14852-2.4486-7.5668-0.0107-10.755-4.5743-58.163-6.2835-65.278-2.8898-12.03-8.4664-24.623-15.518-35.043-5.3463-7.8998-17.128-19.381-23.684-23.082-2.9439-1.6614-6.3862-4.3973-7.6494-6.0796-3.122-4.1577-8.4942-15.143-11.85-24.23-1.5237-4.1265-3.0643-7.321-3.4236-7.0989s-0.93362 1.8056-1.2763 3.5191c-0.83795 4.1898-6.4437 14.049-12.555 22.081-2.7517 3.6166-5.2936 6.7954-5.6486 7.0639-2.6706 2.0196-8.1328 11.028-10.66 17.58-3.707 9.6127-8.2496 28.192-10.235 41.864-0.80988 5.5758-1.632 10.297-1.827 10.492s-2.9556-1.6845-6.1348-4.1767c-7.6622-6.0065-19.884-14.013-21.391-14.013-0.71897 0-1.4405 2.0028-1.7926 4.976-1.0572 8.9262-5.553 14.016-13.352 15.117l-4.3936 0.62005 2.4409-1.7685c3.4918-2.53 4.7098-4.2881 5.8971-8.5121 3.4567-12.299-9.2958-19.207-33.811-18.317-5.9396 0.21569-5.6665 16.872 0.57771 35.235 1.1847 3.4839 2.7237 8.9128 3.4199 12.064l1.2659 5.7296-3.7426-0.50199c-5.1099-0.68538-13.821-4.8049-18.795-8.8887-4.7087-3.8655-10.061-12.196-12.539-19.514-1.9405-5.732-3.4342-6.2576-5.8804-2.069-1.6455 2.8175-4.7378 17.62-4.7378 22.679 0 2.0658-0.61769 1.5813-4.2161-3.3067-5.2717-7.1611-15.577-16.285-22.261-19.707-3.9624-2.0292-5.3505-3.3686-6.2646-6.0447-1.5934-4.6648-6.9498-13.44-10.565-17.31-2.2017-2.3561-3.8058-3.1732-6.2298-3.1732-3.9102 0-10.312-3.0843-12.303-5.9277-1.4239-2.0329-1.4655-2.0207-5.4826 1.6086-11.9 10.751-20.535 48.163-20.546 89.018l-3e-3 11.96h-22.944c-20.555 0-22.944-0.16568-22.944-1.5911zm470.12-81.641c1.611-0.0213 5.8285 0.3014 9.3722 0.71706 11.175 1.3108 14.462-0.40678 29.635-15.482 15.398-15.299 18.818-21.065 21.574-36.375 1.7026-9.4556 1.6995-9.5868-0.29994-13.061-1.8597-3.2314-1.9776-4.5884-1.4883-17.131 0.42179-10.812 0.19781-14.931-1.0855-19.968-2.0986-8.2369-5.4248-14.958-10.321-20.854-2.1664-2.6092-3.9434-5.4651-3.9486-6.3463 0-0.88129-1.0642-3.8674-2.3532-6.6358-2.2554-4.8441-2.2858-5.1941-0.80725-9.3057 2.063-5.7369 1.1386-9.0656-2.9263-10.538-1.7486-0.63336-11.288-1.5475-21.199-2.0314-16.938-0.82697-18.14-0.77007-20.015 0.94776-5.0145 4.5925-15.988 12.269-19.082 13.349-1.8795 0.65617-6.053 1.5198-9.2746 1.9192-5.0025 0.62021-6.3188 1.23-9.0191 4.1781-1.739 1.8985-5.2184 4.5802-7.7319 5.9594-6.6782 3.6641-8.6773 6.8452-8.4426 13.434 0.10584 2.9729 0.39455 5.6073 0.64147 5.8543 1.084 1.084 6.288-2.8055 9.2246-6.8946 4.0841-5.687 9.0051-7.5166 13.695-5.0916 6.0678 3.1377 8.6143 10.955 5.0465 15.491-2.3323 2.965-4.0706 3.3444-5.7964 1.2649-0.98564-1.1877-1.6732-1.0434-4.6494 0.97635-1.9209 1.3036-4.0732 2.3702-4.7829 2.3702s-2.1641 0.93802-3.2322 2.0845c-1.4547 1.5614-2.6538 1.9422-4.7779 1.5173-4.0709-0.81417-6.7216 1.4885-8.4627 7.3518-2.1414 7.2111-1.8681 12.309 0.97626 18.205 4.0453 8.3855 15.882 19.586 19.968 18.894 0.88819-0.15048 2.4227 0.61908 3.4101 1.7101 2.4151 2.6687 4.2655 2.4981 7.6081-0.70128 2.4929-2.3861 3.5313-2.6831 9.3288-2.6684 7.5555 0.0192 16.761 3.0632 21.584 7.1373l3.0892 2.6097-2.9106 3.5004c-3.2963 3.9642-12.286 8.4037-18.834 9.3012-3.2978 0.45201-5.19 0.1224-8.027-1.3981-4.2819-2.295-6.2136-1.9061-7.0481 1.4188-0.43331 1.7265 0.0654 3.0119 1.87 4.8161 3.6466 3.6466 7.6489 4.4777 13.375 2.7773 2.6511-0.78728 5.9164-1.1563 7.2561-0.82004 6.1314 1.5389 5.196 6.6299-1.4237 7.7483-5.1577 0.87139-12.074 6.0972-12.466 9.4189-0.19156 1.6239 0.65123 3.6326 2.3925 5.702 3.7276 4.4299 7.6685 6.0292 13.037 5.2904 2.4165-0.33254 5.7117-0.62203 7.3227-0.64331zm-35.857-66.883c-1.0025-1.1426-1.2371-2.3556-0.70815-3.6614 0.43506-1.074 0.82199-3.077 0.85968-4.4511s0.62946-3.2654 1.315-4.2028c1.1676-1.5969 1.5452-1.5373 5.985 0.94414l4.7388 2.6485 4.2897-2.3434c3.9586-2.1624 4.4892-2.2309 6.8735-0.88666 4.2158 2.3769 3.7517 3.5989-1.5607 4.1093-3.6586 0.35155-5.7366 1.2315-8.3717 3.5452-1.9278 1.6927-4.2588 3.0916-5.1799 3.1086s-2.5275 0.67613-3.5699 1.4645c-2.4155 1.827-2.8492 1.8014-4.6713-0.27514zm34.003-46.664c0.73246-2.9204-2.7025-5.6682-6.4061-5.1246-2.693 0.39525-2.9676 0.18672-2.9676-2.2536 0-3.9485 3.6469-6.329 10.849-7.0818 3.339-0.34901 6.2889-0.41674 6.5551-0.15052s-0.24546 1.2902-1.1372 2.2755c-2.3014 2.543-2.0781 2.9388 2.04 3.6153 6.8881 1.1316 16.584 4.3456 17.902 5.9342 1.1348 1.3674 0.9913 1.8516-1.0357 3.4929-1.5469 1.2526-3.0416 1.6774-4.362 1.2399-1.1048-0.36608-3.1072-0.62199-4.4497-0.56867-17.866 0.70965-17.519 0.73788-16.988-1.3787zm79.147 70.768c3.2382-1.2312 4.1979-2.5326 4.218-5.7202 0.0166-2.5716-2.4918-5.935-4.4255-5.935-0.6648 0-1.4757-0.69558-1.8019-1.5457-1.012-2.6372-2.6368-1.0591-4.5742 4.4427-1.6815 4.7748-1.7181 5.4978-0.38097 7.5385 1.6467 2.5131 2.9586 2.7429 6.9647 1.2198zm3.532-19.806c4.3259-1.8128 9.2164-6.1026 12.02-10.543 1.8616-2.9491 2.3501-5.0461 2.3501-10.089 0-6.5084-1.3233-8.5252-2.3942-3.6491-1.2992 5.9154-5.0333 10.265-12.394 14.436-7.4637 4.2296-10.367 7.6224-8.4735 9.9034 1.3493 1.6258 4.9292 1.6025 8.8917-0.058zm-329.6-11.314c3.8188-1.8066 8.337-5.1449 12.224-9.0318 8.1119-8.1119 17.868-22.777 19.878-29.881 0.86747-3.0652 3.3304-11.498 5.4732-18.741 4.0124-13.561 4.2014-16.309 1.6632-24.178-0.76911-2.3845-1.5914-3.1732-3.3084-3.1732-1.2567 0-4.5617-1.1436-7.3444-2.5412-4.3374-2.1786-5.8097-2.4475-10.317-1.8844-5.696 0.71167-8.1856 2.4729-3.4957 2.4729 5.2702 0 15.281 3.7525 19.261 7.2199l3.8438 3.3487-2.9291 1.1375c-10.239 3.9762-17.706 3.4084-27.442-2.0863-6.2221-3.5115-8.4255-7.0484-8.0041-12.848l0.29755-4.0946 8.7872 0.0146c6.4618 0.0107 10.338 0.56617 14.645 2.0986 7.4547 2.6519 13.181 3.6697 13.181 2.3427 0-0.55134-1.815-4.7688-4.0333-9.3722-3.3817-7.0176-5.1479-9.3471-10.933-14.419-11.749-10.302-12.372-11.024-12.372-14.323v-3.0539l-3.1732 2.3859c-1.7452 1.3122-5.1503 2.7046-7.5668 3.0942s-5.4986 1.2733-6.8492 1.9639c-3.1189 1.5947-18.472 17.62-20.724 21.632l-1.7002 3.028 10.833 0.3708c9.9911 0.34197 10.979 0.55065 12.707 2.6847 2.178 2.6898 1.7775 4.7458-1.963 10.076-3.6762 5.2383-7.897 6.9566-16.858 6.863-4.1078-0.043-8.3546-0.5521-9.4371-1.1315-1.7447-0.93372-2.1995-0.57576-4.0034 3.1506-2.7037 5.585-2.5534 10.741 0.50284 17.256 2.517 5.366 2.5184 5.3833 1.8353 23.546-0.85774 22.809-0.48521 25.177 4.8354 30.729 3.2756 3.4186 4.8138 4.3125 7.4661 4.3388 1.8373 0.0183 5.098 0.88204 7.246 1.9196 5.5894 2.6998 10.688 2.4374 17.774-0.91469zm-28.026-9.473c-4.775-1.9791-6.2517-7.0302-3.5047-11.988l1.3079-2.3607 1.177 2.1992c0.64735 1.2096 2.6653 2.8211 4.4843 3.5811 3.8417 1.6052 14.749 1.8329 18.551 0.38731 2.2556-0.8576 2.5303-0.77141 1.9941 0.62576-0.34198 0.89117 0.02441 2.6065 0.81411 3.8118 1.3678 2.0875 1.2925 2.2201-1.5875 2.7961-4.6848 0.93696-21.598 1.6268-23.237 0.94767zm6.3463-15.149c-2.148-0.55703-4.8813-1.1954-6.0741-1.4187-2.9348-0.54927-4.5398-3.8681-4.4682-9.2394 0.07118-5.3375 2.066-9.5264 6.1885-12.995 3.4791-2.9274 6.7886-3.2459 10.239-0.98531 1.3195 0.86454 3.103 1.3017 3.9635 0.97155 2.5165-0.96566 9.3798 2.67 13.34 7.0665 4.4748 4.9677 5.0078 10.196 1.4599 14.32-2.035 2.3659-2.9021 2.587-11.472 2.9261-5.0989 0.20175-11.028-0.0889-13.176-0.64598zm-0.59104-33.15c-2.2499-2.2954-3.7054-4.5981-3.4036-5.3846 0.74218-1.9341 5.3222-3.4837 7.785-2.6339 1.1373 0.39243 4.1762 0.58132 6.7531 0.41978 3.6327-0.22772 5.4408 0.22077 8.0483 1.9964 5.4716 3.7259 4.1748 6.6837-2.9303 6.6837-1.7698 0-3.7648 0.65905-4.4333 1.4645s-2.7168 1.4645-4.5518 1.4645c-2.6181 0-4.1827-0.86342-7.2673-4.0104zm-128.87 57.111c-1.4283-1.721-2.1216-1.2164-1.2935 0.94152 0.3374 0.87927 1.0281 1.3424 1.5349 1.0292 0.5494-0.33954 0.45191-1.1353-0.24143-1.9707zm393.97-87.866c2.5256-0.96917 1.7804-2.3131-2.2652-4.0851-4.508-1.9744-10.836-9.2137-10.836-12.396 0-1.2342-0.5492-2.4527-1.2204-2.7077-2.0511-0.77913-7.6923 0.42223-8.2004 1.7464-0.67574 1.7608 3.3053 10.62 5.8384 12.993 4.6442 4.3504 11.9 6.2857 16.683 4.4501zm-264.11-3.9114c0.76282-0.70839-0.73583-1.5239-4.2619-2.3192-3.5239-0.79476-6.3967 0.58807-6.3967 3.0791 0 0.9167 9.5893 0.233 10.659-0.75994zm356.65-34.733c3.6032-1.9205 7.999-5.5062 11.485-9.3682 5.7954-6.4212 15.06-21.018 17.858-28.137 4.0973-10.424 4.3706-32.909 0.52499-43.187-2.0418-5.457-5.986-12.705-9.9156-18.222-1.146-1.6087-2.8974-4.4646-3.8921-6.3463-2.708-5.1231-2.8992-5.1831-7.9551-2.4948-2.5764 1.3699-5.4663 2.4908-6.422 2.4908s-2.4784 0.74083-3.3839 1.6463c-1.5441 1.5441-1.3286 1.7865 3.4728 3.9054 2.8154 1.2425 6.7714 2.2592 8.791 2.2592 2.1084 0 4.615 0.76357 5.8866 1.7932l2.2145 1.7932-5.7678 3.2593c-3.1722 1.7926-6.8155 4.0612-8.0961 5.0413-3.6021 2.7567-9.6241 2.3186-15.001-1.0914-4.9131-3.1158-6.9716-6.2769-7.8674-12.082-1.2854-8.3289 3.8554-12.232 18.172-13.795l9.9542-1.0873-5.6846-4.4705c-3.1265-2.4588-7.6292-5.4418-10.006-6.6288-5.4957-2.7447-6.4713-5.7952-3.5028-10.953 1.5231-2.6466 2.1071-5.2988 2.1071-9.57 0-3.2883-0.43301-5.9088-0.97636-5.9088s-0.97636 1.1732-0.97636 2.6071-1.3555 5.548-3.0123 9.1424c-3.5556 7.714-7.176 10.262-16.739 11.781-8.4356 1.34-13.795 4.16-18.081 9.5133-2.0015 2.5002-4.6333 5.5134-5.8483 6.696-2.3178 2.2561-2.831 5.6284-1.2327 8.1016 0.60466 0.93555 0.95186 1.0328 0.96142 0.26916 0.0264-2.0869 5.589-4.1746 11.124-4.1746 4.9861 0 5.55 0.24591 8.3475 3.6397 3.609 4.3784 4.1705 10.812 1.2027 13.78-4.227 4.2269-13.09 9.2222-16.943 9.5488-4.2156 0.35742-9.7347 3.8571-11.611 7.3625-2.412 4.5067-0.63922 11.763 3.8709 15.844 1.1184 1.0122 2.3002 3.4276 2.6261 5.3677 1.0062 5.9899 1.4211 6.8277 4.448 8.9831l2.9342 2.0893 2.2586-2.1219c3.5267-3.3132 15.695-7.8641 21.027-7.8641 4.526 0 11.53 2.9336 15.888 6.6546 3.871 3.3053 1.0847 12.153-5.2948 16.815-5.7872 4.2284-7.9903 4.979-16.245 5.5349-5.8591 0.39454-7.4737 0.17742-9.0084-1.2113-1.0283-0.93063-1.6739-2.0088-1.4346-2.396s-0.63199-1.7064-1.9361-2.9315l-2.3712-2.2276-1.2141 2.6648c-1.6456 3.6118 0.5122 7.4477 5.0733 9.0183 4.7175 1.6244 14.194 1.5293 19.894-0.19955 6.2832-1.9061 7.4935-1.8604 6.7484 0.25465-1.6121 4.5759-5.255 7.7687-11.93 10.456-3.8136 1.5352-6.9337 3.1808-6.9337 3.6568s1.0785 1.9439 2.3966 3.262c2.0165 2.0165 3.3713 2.4074 8.5432 2.4652 3.3806 0.0378 7.0253 0.44621 8.0993 0.90773 3.6911 1.5861 7.5488 0.97035 13.375-2.135zm0.46934-54.09c-0.71372-4.3986-6.0337-12.81-8.6212-13.631-1.0724-0.34038-3.2382-0.0852-4.8129 0.567s-4.2371 0.91103-5.9167 0.57511c-2.4644-0.49289-3.4906-0.13937-5.3174 1.8318-1.6104 1.7376-3.282 2.4426-5.7919 2.4426-1.9404 0-4.268 0.37748-5.1725 0.83884-3.9872 2.0339-8 2.0811-9.9638 0.11719-2.7757-2.7757-2.4664-3.9885 2.5808-10.119 4.9128-5.9675 7.2426-6.7226 12.417-4.0241 1.9676 1.0262 3.2953 1.1662 4.5735 0.48216 2.6249-1.4048 6.4877-1.1813 9.8773 0.57154 1.9191 0.99245 4.2325 1.3397 6.5419 0.98191 3.8895-0.60255 5.3435 0.27029 10.163 6.1007 2.1886 2.6476 2.685 4.2123 2.685 8.4633 0 8.3269-2.1524 11.516-3.2418 4.8025zm-266.82 41.658c2.0562-1.7065 2.6065-7.8585 1.4956-16.719-0.56041-4.4694-1.2168-8.4463-1.4587-8.8377s-3.1062 0.57999-6.3651 2.1586c-5.8498 2.8337-5.915 2.9103-5.1214 6.0162 1.0356 4.0529 1.0048 14.363-0.0495 16.565-1.6157 3.374 7.627 4.0304 11.499 0.81671zm211.96-0.0781c-0.33186-0.537-0.79719-0.97636-1.034-0.97636s-0.43057 0.43936-0.43057 0.97636 0.46533 0.97636 1.034 0.97636 0.76244-0.43936 0.43057-0.97636zm-209.05-153.86c0.32595-0.84942 0.59264-4.4172 0.59264-7.9285v-6.3841l4.1495 3.3831c4.8245 3.9334 7.8182 5.6394 9.896 5.6394 1.2537 0 1.3912-1.2742 0.89552-8.2991-0.41906-5.9373-0.26655-8.299 0.53573-8.299 0.65513 0 1.1213-1.6047 1.1213-3.8596 0-3.5977-0.23745-3.9251-3.5003-4.826-5.1247-1.415-7.529-0.0234-11.633 6.7329-4.6685 7.6852-9.5904 9.6862-15.914 6.47-1.4501-0.73747-3.6251-1.6458-4.8333-2.0185-2.0503-0.63248-2.1968-0.38829-2.1968 3.6622 0 2.6666 0.56468 4.8085 1.4645 5.5553 0.8055 0.6685 1.4781 1.7109 1.4947 2.3164 0.0359 1.3088 7.3275 6.9516 10.746 8.3164 3.6296 1.4489 6.5201 1.2634 7.1817-0.46082zm-198.58 253.73c-2.732-0.99412-6.8345-5.5267-6.834-7.5506 6.1e-4 -2.5239 8.8455-10.313 11.711-10.313 1.1404 0 5.783 1.8211 10.317 4.0469 8.9219 4.3801 9.4808 5.8764 2.6719 7.1538-1.9841 0.37221-4.3526 1.692-5.3796 2.9976-2.4429 3.1057-8.8529 4.9874-12.486 3.6655zm275.05-52.713c-4.1477-8.0299-7.5243-19.184-7.5243-24.854 0-4.8671 0.0859-5.0485 1.4597-3.0871 2.6174 3.7369 7.1653 16.265 8.3223 22.926 1.6542 9.5225 0.9166 11.161-2.2576 5.0157zm-273.43-142.68c-2.0968-2.3169-3.8785-12.021-3.0776-16.762 0.49127-2.9078 0.06532-4.8048-1.9894-8.8595-4.5468-8.9727-1.6094-16.443 7.1152-18.095 6.2097-1.1758 14.731 2.118 12.152 4.6972-1.932 1.932-1.3316 4.6694 1.686 7.687 2.2141 2.2141 3.7398 2.854 6.8053 2.854 3.9406 0 3.9508 0.01 3.7365 3.5925l-0.2149 3.5925 5.6141 1.3946c3.0877 0.76701 5.6141 1.6906 5.6141 2.0524s-3.5506 2.2706-7.8901 4.2419c-5.2273 2.3745-8.0617 4.24-8.3984 5.5276-0.62179 2.3777-5.2706 3.5802-8.0632 2.0856-1.1055-0.59165-2.7171-2.1549-3.5813-3.4739-1.9188-2.9285-3.3105-2.2916-3.3105 1.515 0 2.8927-2.7662 9.7391-3.9349 9.7391-0.35431 0-1.3726-0.80488-2.2629-1.7886zm7.2076-29.517c1.2091-2.2592-0.18517-4.8194-2.6245-4.8194-2.2152 0-2.6734 2.8407-0.79325 4.9182 2.1374 2.3618 2.1003 2.3628 3.4178-0.0988zm27.678 5.7341c-0.39527-0.63956-0.20152-1.3352 0.43056-1.5459s1.1492-1.1892 1.1492-2.1746c0-2.7682 1.0563-4.8803 2.4409-4.8803 2.4314 0 3.3878 6.4735 1.2693 8.592-1.503 1.503-4.3636 1.5078-5.2899 9e-3zm298.89-8.9179c-2.5227-6.0376-3.6793-16.173-3.1235-27.372 1.1409-22.984 2.72-37.074 5.7222-51.054 2.715-12.643 3.159-16.792 3.4687-32.411 0.23287-11.746 0-18.343-0.68462-19.164-1.4056-1.6936 0.40031-6.3721 2.4596-6.3721 1.9056 0 5.5722 1.8659 6.511 3.3133 0.40948 0.6312-0.58924 1.6726-2.4409 2.5454l-3.1338 1.4771-0.60613 16.592c-0.78997 21.625-2.6083 40.868-4.3817 46.37-3.7581 11.661-2.3374 27.698 4.0849 46.11 4.886 14.008 5.0125 15.023 2.2422 17.989-2.1155 2.2647-6.7455 5.2225-8.1751 5.2225-0.32259 0-1.1969-1.4608-1.9428-3.2462zm-106.89-77.727c-1.1603-2.168-1.3273-8.7974-0.26352-10.462 0.71548-1.12 2.5332-1.6529 4.891-1.4337 3.7912 0.35238 3.1687 10.708-0.77045 12.816-2.4512 1.3119-2.6937 1.2541-3.857-0.91967zm113.31-73.638c-0.0488-0.99648 0.61032-4.5068 1.4638-7.8008 0.92823-3.5822 1.3089-7.5084 0.94736-9.7698l-0.60466-3.7808 2.5129 2.9863c3.7665 4.4763 6.2464 4.8953 8.9447 1.5113l2.2376-2.8062 1.4416 2.0582c0.7929 1.132 2.7467 2.5988 4.3418 3.2595 2.3269 0.96384 2.8839 1.7713 2.8181 4.0854-0.0449 1.5863 0.42482 3.3909 1.0442 4.0104 1.629 1.629 1.3847 2.6884-0.61999 2.6884-0.96044 0-3.4699 0.87872-5.5765 1.9527-4.9923 2.5452-5.1708 2.5097-6.1306-1.2204-0.66813-2.5968-1.4766-3.3388-4.4512-4.0849-4.2946-1.0772-5.8437 0.0454-7.3212 5.3053-0.52791 1.8795-0.9995 2.602-1.0479 1.6055zm39.026-8.8965c-2.2807-1.2206-2.2907-1.2761-0.34436-1.8939 1.2066-0.38296 2.2364-1.7916 2.5853-3.5366 0.34514-1.7253 1.1956-2.9002 2.0997-2.9002 1.9456 0 2.812 2.2692 2.0403 5.344-0.83772 3.3378-3.4449 4.5581-6.3809 2.9868z"/>
 </g>
</svg>
